<svg xmlns="http://www.w3.org/2000/svg" id="Calque_1" viewBox="0 0 329.03 206.26"><defs><style>.cls-6{fill:#023739}</style></defs><path d="M220.68 86.62c.16.08.56-1.23.72-1.15 1.05-1.72 1.51-3.56 2.56-5.28.51-.85 1.01-1.71 1.52-2.56.15-.07.31-.15.46-.22-1.65-.92.37-1.39.22-2.37-.84-.9-1.84-1.95-2.84-3.01-.71-.51-1.42-1.02-2.12-1.54-.62-.46-1.22-.95-1.83-1.43-.26-.35-.52-.69-.78-1.04-.17-.22-.34-.44-.5-.66-.16-1.45-1.18-2.04-2.41-2.43-.4-1.86-1.2-2.24-2.88-1.66-1.51.53-2.95.05-4.27-.8-.34-.42-.68-.83-.73-.9.08-.72.28-1.17.13-1.42-.56-.97-1.3-1.83-1.81-2.82-.19-.38-.09-1.11.16-1.49.86-1.28 1.86-2.48 2.8-3.71 1.35-.71 1.62-2.05 1.94-3.36.46-.45.92-.91 1.37-1.36.4-.43.94-.8 1.17-1.3.29-.65.33-1.42.48-2.14.45-.61.89-1.22 1.34-1.84.75-.44 1.5-.87 2.25-1.31.68-.45 1.37-.9 2.05-1.34.59-.15 1.19-.29 1.78-.44l9.13 1.44c2.46.57 4.92 1.13 7.38 1.7.11.43.1 1.1.36 1.24.88.44 1.86.7 2.8 1.02.18.31.35.62.53.93 1.08.58 2.16 1.16 3.23 1.73l1.39 1.27c.39.36.78.72 1.18 1.07-.18.27-.55.74-.51.78.69.65 1.43 1.25 2.15 1.86 1.36 1.29 2.44 3.2 4.86 2 .32-.16.82.07 1.24.12.01.32.02.63.04.95.02.21.03.42.05.63 2.76.05 5.51.11 8.27.12.2 0 .39-.32.59-.5 1.32-.23 2.64-.45 3.97-.68.78-.12 1.56-.23 2.35-.35.22 0 .43-.02.65-.03h1.91c.14 0 .27 0 .41.01.55 0 1.11 0 1.66.01 1.79 0 3.58 0 5.37-.01.49.23.99.46 1.48.69.36.33.67.8 1.1.95 1.96.7 3.95 1.32 5.93 1.96.79.31 1.62.55 2.35.96 1.42.78 2.78 1.64 4.17 2.48 1.1.67 2.22 1.32 3.3 2.03 2.22 1.48 4.41 3 6.61 4.5 1.43.04 2.86.07 4.28.11.2-.22.4-.44.6-.67.69.04 1.37.08 2.29.14-.79-1.65.08-2.27 1.03-2.81.76-.44 1.55-.85 2.36-1.18.82-.33 1.69-.53 2.53-.79l-.6 3.93c-.89.88-1.78 1.75-2.68 2.63l-4.62 1.32c-1.77 0-3.54-.02-5.31-.03-1.1-.43-2.2-.87-3.3-1.3-2-1.08-4-2.17-6-3.25-.64-.26-1.29-.51-1.93-.77-.87-1.46-2.25-1.4-3.66-1.23-.92-.32-1.83-.64-2.75-.96l-.38.4c.72 1.31 1.44 2.62 2.16 3.92.03.27-.03.59.1.81 1.44 2.39 2.77 4.87 4.41 7.11 1.27 1.73 2.19 4.25 5.18 3.68.32.29.6.78.96.84 1.95.3 3.92.5 5.88.73 1.21 3.32 2.42 6.64 3.64 9.96a1445 1445 0 0 1-3.04 5.33c-.09.09-.17.18-.26.27-.22.03-.44.06-.66.08-.66-.02-1.32-.02-1.98-.06-1.85-.11-3.7-.24-5.55-.36l.69-1.95c3.35-1.08 4.83-1.83 4.5-4.67-.09-.87.45-2-.96-2.32-.42-.12-.84-.32-1.27-.34-1.8-.08-3.6-.1-5.41-.14-.77-.02-1.54-.06-2.31-.09-.21-.2-.43-.4-.64-.6.05-.03.1-.04.14-.08.03-.03.04-.12.02-.13-1.48-1.04-3.28-1.06-4.93-1.55l-2.46-1.32c-.77-.59-1.55-1.18-2.32-1.77-1.08-2.35-2.42-2.56-4.08-.72-1.34 1.49-2.87 2.81-4.19 4.31-.68.77-1.09 1.79-1.62 2.69-.18.48-.48.96-.51 1.45-.07 1.1 0 2.21 0 3.31-1.34.86-2.69 1.72-4.03 2.59-.41.77-.81 1.54-1.22 2.31-3.23-.06-6.45-.13-9.68-.19l-.11-.07c.41-.63.99-1.21 1.19-1.89.3-1.01 1.96-.75 1.79-2.07 1.13-.21 2.26-.43 3.4-.64.7-.77 1.39-1.54 2.09-2.31l.87-4.32c.92-.83.76-1.78.29-2.76.25-2.92-.74-3.81-3.28-2.93-.32.13-.64.27-.96.4-.12-.12-.24-.23-.35-.35l-.46-.32c-2.23-.26-4.31.17-6.27 1.27-.56.31-1.2.5-1.8.75-.66.62-1.9 1.27-1.87 1.85.06 1.15.82 2.26 1.28 3.39-.19 1.13-.17 2.16 1.17 2.61.06.26.11.53.17.79-.69 1.54-1.38 3.08-2.06 4.62-.57.71-1.13 1.42-1.7 2.14l-7.66.36c-.02-.3-.04-.6-.05-.9.44-.66.87-1.32 1.31-1.97.83-.34 1.68-.64 2.49-1.02 1.79-.84 2.04-1.97.82-3.56-.86-.79-1.72-1.57-2.58-2.36-.54-.57-1.09-1.13-1.63-1.7-.86-.72-1.75-2.02-2.58-1.99-.89.04-1.63-.14-2.42-.31l-1.01-.06c-1.01-1.07-2.11-1.35-3.41-.46-.67.45-1.36.94-2.11 1.2-3.24 1.11-4.98 3.57-6.18 6.57-.64.31-1.27.63-1.91.94l-2.03 1.73c-.85.45-1.69.9-2.54 1.35-.54.19-1.16.27-1.61.59-.96.69-1.84 1.51-2.75 2.27l-.03.1c-1.77 0-3.54 0-5.31.01l-.34-.34.36-2.54c.3-.08.76-.06.89-.26 1.17-1.83 3.15-2.37 4.95-3.17 2.15-.96 4.41-1.54 3.77-3.89" style="fill:#e63629"/><path d="M24.85 89.21c0 .37-.07.72-.16 1.06l12.44 7.9c.1-.1.19-.21.3-.31.65-.55 1.44-.84 2.23-.9V39.34H20.81v45.95s.07-.01.1-.01c2.18 0 3.94 1.76 3.94 3.94Zm12.09 14.2c-.59-.7-.87-1.54-.9-2.39l-13.21-8.39c-.57.32-1.22.52-1.92.52-.04 0-.07 0-.1-.01v47.29h18.85V104.8a3.9 3.9 0 0 1-2.71-1.39Zm12.65-17.56 11.89-7.98a3.91 3.91 0 0 1 1.32-3.75c.96-.8 2.18-1.05 3.31-.83v-8.73c0-2.35.32-4.12.97-5.34.64-1.21 1.83-1.82 3.58-1.82s2.84.53 3.52 1.59q1.02 1.59 1.02 5.79V79.2h19.42V62.39c0-7.42-2.2-13.1-6.59-17.03-4.39-3.94-10.18-5.9-17.38-5.9-8.25 0-14.31 2.46-18.17 7.38s-5.79 12.23-5.79 21.92v15.71c1.08.03 2.14.49 2.89 1.37Z" class="cls-6"/><path d="M75.2 97.37v17.6c0 4.92-1.52 7.38-4.54 7.38-1.51 0-2.65-.59-3.41-1.76s-1.14-3.05-1.14-5.62V80.99c-1.05.21-2.14 0-3.03-.63l-12.57 8.43c-.1.99-.56 1.95-1.39 2.64-.71.6-1.57.88-2.43.9v22.87c0 7.8 2.14 13.93 6.42 18.4s9.97 6.7 17.09 6.7c16.43 0 24.64-8.18 24.64-24.53v-18.4H75.19Zm67.59-12.07a3.9 3.9 0 0 1 1.39-2.74c1-.84 2.3-1.09 3.48-.8.75-3.67 1.12-7.92 1.12-12.79 0-9.69-1.67-17.05-5-22.09-3.33-5.03-8.9-7.55-16.69-7.55h-25.78v55.72c.8.15 1.56.54 2.15 1.18l39.32-10.93Zm-22.28-28.26h2.16c2.73 0 4.54.91 5.45 2.73s1.36 4.77 1.36 8.86c0 3.03-.17 5.36-.51 6.98q-.51 2.445-2.16 3.75c-1.1.87-2.82 1.31-5.17 1.31h-1.14V57.05Zm23.58 31.45L104.48 99.5c-.14.92-.58 1.79-1.35 2.43-.54.45-1.17.72-1.82.84v37.67h19.19v-38.61h7.95q11.475 0 15.9-7.38c.86-1.44 1.6-3.09 2.21-4.94-.9-.03-1.78-.38-2.48-1.01Zm14.15-12.29 33.6 9.49c.18-.24.38-.46.61-.66 1.12-.94 2.6-1.13 3.87-.67 1.82-1.22 3.2-2.82 4.13-4.83 1.44-3.1 2.16-7.42 2.16-12.95 0-6.06-.45-11.03-1.36-14.93q-1.365-5.85-5.28-9.09t-11.07-3.24h-29.98v34.06c.96.11 1.89.57 2.56 1.37.36.43.61.92.76 1.43Zm16.55-18.81h4.54c1.14 0 2.01.25 2.61.74s1.02 1.38 1.25 2.67.34 3.22.34 5.79c0 5.91-1.36 8.86-4.09 8.86h-4.66V57.39Zm22.3 33.97a3.92 3.92 0 0 1-5.12-.78c-.39-.46-.64-.98-.78-1.53l-33.53-9.47c-.19.26-.4.52-.66.74-.61.51-1.34.81-2.07.89v59.22h19.76V95.91q4.2 0 5.79 1.14t1.59 5.22v38.16h19.08l.23-36.91c0-4.01-.66-7.19-1.99-9.54a8.5 8.5 0 0 0-2.29-2.62Z" class="cls-6"/><path d="M265.87 165.83c-.31 0-.61-.08-.88-.24s-.41-.39-.41-.69v-17.54c0-.32.15-.55.46-.69.3-.14.64-.21 1.01-.21s.7.07 1.01.21c.3.14.46.37.46.69v15.98h7.18c.29 0 .52.13.66.38.15.26.22.54.22.86 0 .3-.07.58-.22.85-.15.26-.37.4-.66.4h-8.8Zm15.13 0c-.37 0-.7-.08-1.01-.24s-.46-.39-.46-.69v-6.7c0-.11-.03-.2-.08-.29l-5.71-9.88a.8.8 0 0 1-.07-.23c0-.06-.01-.12-.01-.17q0-.345.3-.6c.2-.17.45-.3.73-.41s.56-.16.81-.16c.24 0 .43.05.57.16s.26.27.37.48l4.55 8.4 4.53-8.4c.13-.21.26-.37.4-.48s.33-.16.57-.16c.26 0 .53.05.81.16s.53.24.73.41q.3.255.3.6c0 .05 0 .11-.01.17 0 .06-.04.14-.1.23l-5.69 9.88a.5.5 0 0 0-.08.29v6.7c0 .3-.15.53-.46.69s-.64.24-1.01.24Zm15.12.16c-1.16 0-2.2-.19-3.13-.58a4.7 4.7 0 0 1-2.21-1.88c-.54-.87-.81-2.01-.81-3.44v-7.71c0-1.43.27-2.58.81-3.44.54-.87 1.28-1.49 2.21-1.88s1.98-.58 3.16-.58 2.21.19 3.15.58a4.83 4.83 0 0 1 2.24 1.88c.55.87.83 2.01.83 3.44v7.71c0 1.43-.28 2.58-.83 3.44-.55.87-1.3 1.49-2.24 1.88s-2 .58-3.17.58Zm0-2.5c1.03 0 1.84-.28 2.43-.83.59-.56.88-1.42.88-2.58v-7.71q0-1.755-.87-2.58c-.58-.56-1.38-.83-2.42-.83s-1.84.28-2.41.83q-.87.84-.87 2.58v7.71c0 1.17.29 2.03.86 2.58.57.56 1.37.83 2.4.83m11.32 2.34c-.37 0-.7-.08-1.01-.24s-.46-.39-.46-.69v-17.51c0-.34.15-.57.46-.72.3-.14.64-.21 1.01-.21s.65.05.9.15.47.26.68.49c.2.23.41.55.63.95l6.13 11.47v-12.16c0-.32.15-.55.46-.69.3-.14.64-.21 1.01-.21s.7.07 1.01.21c.3.14.46.37.46.69v17.54c0 .3-.15.53-.46.69s-.64.24-1.01.24-.7-.09-.99-.26c-.29-.18-.54-.43-.75-.77l-6.6-12.06v12.16c0 .3-.15.53-.46.69-.3.16-.64.24-1.01.24" style="fill:#b3231e"/><path d="M208.33 140.2c-.53 0-1.1-.17-1.72-.53q-.93-.525-.93-1.41v-5.37c0-1.51.44-2.91 1.33-4.18.88-1.27 2.03-2.48 3.44-3.63 1.41-1.14 2.91-2.26 4.49-3.35s3.07-2.2 4.46-3.32c1.39-1.13 2.54-2.3 3.44-3.52s1.36-2.55 1.36-3.99c0-.92-.22-1.83-.65-2.71s-1.1-1.62-2-2.21-2.07-.89-3.5-.89c-1.58 0-2.93.44-4.04 1.33s-1.66 2.27-1.66 4.15c0 .55-.27 1.06-.82 1.52s-1.31.69-2.29.69c-.83 0-1.49-.23-1.97-.69-.49-.46-.73-1.32-.73-2.57 0-1.99.53-3.72 1.58-5.18s2.46-2.59 4.23-3.4 3.67-1.22 5.7-1.22c2.18 0 4.2.46 6.04 1.38s3.32 2.21 4.43 3.85 1.66 3.57 1.66 5.79c0 1.96-.44 3.73-1.33 5.32-.88 1.59-2.02 3.03-3.41 4.32a38.6 38.6 0 0 1-4.43 3.54c-1.56 1.07-3.03 2.09-4.4 3.04q-2.055 1.44-3.39 2.88c-.88.96-1.33 1.97-1.33 3.05v2.1h16.54q.795 0 1.38.75c.39.5.59 1.1.59 1.8s-.2 1.32-.59 1.85c-.39.54-.86.8-1.38.8h-20.09Zm39.05.33c-2.37 0-4.52-.41-6.43-1.22-1.92-.81-3.43-2.12-4.54-3.93s-1.67-4.21-1.67-7.2v-16.11c0-2.99.56-5.39 1.67-7.2s2.61-3.12 4.52-3.93c1.9-.81 4.05-1.22 6.46-1.22s4.52.41 6.46 1.22 3.46 2.12 4.57 3.93 1.66 4.21 1.66 7.2v16.11c0 2.99-.56 5.39-1.66 7.2-1.11 1.81-2.62 3.12-4.54 3.93s-4.08 1.22-6.49 1.22Zm0-5.21c2.11 0 3.75-.58 4.94-1.74s1.78-2.96 1.78-5.4v-16.11c0-2.44-.59-4.24-1.78-5.4s-2.83-1.74-4.94-1.74-3.74.58-4.91 1.74-1.75 2.96-1.75 5.4v16.11c0 2.44.58 4.23 1.75 5.4 1.17 1.16 2.8 1.74 4.91 1.74m.06-12.79c-.72 0-1.3-.23-1.75-.69s-.68-1.04-.68-1.74c0-.66.23-1.21.68-1.63s1.03-.64 1.75-.64 1.29.21 1.72.64c.43.42.65.97.65 1.63 0 .7-.22 1.28-.65 1.74s-1.01.69-1.72.69m19.75 17.67c-.53 0-1.1-.17-1.72-.53q-.93-.525-.93-1.41v-5.37c0-1.51.44-2.91 1.33-4.18.88-1.27 2.03-2.48 3.44-3.63 1.41-1.14 2.91-2.26 4.49-3.35s3.07-2.2 4.46-3.32c1.39-1.13 2.54-2.3 3.44-3.52q1.35-1.83 1.35-3.99c0-.92-.22-1.83-.65-2.71s-1.1-1.62-2-2.21-2.07-.89-3.5-.89c-1.58 0-2.93.44-4.04 1.33s-1.66 2.27-1.66 4.15c0 .55-.27 1.06-.82 1.52s-1.31.69-2.29.69c-.83 0-1.49-.23-1.97-.69-.49-.46-.73-1.32-.73-2.57 0-1.99.53-3.72 1.58-5.18s2.46-2.59 4.23-3.4 3.67-1.22 5.7-1.22c2.18 0 4.2.46 6.04 1.38s3.32 2.21 4.43 3.85 1.66 3.57 1.66 5.79c0 1.96-.44 3.73-1.33 5.32-.88 1.59-2.02 3.03-3.41 4.32a38.6 38.6 0 0 1-4.43 3.54c-1.56 1.07-3.03 2.09-4.4 3.04q-2.055 1.44-3.39 2.88c-.88.96-1.33 1.97-1.33 3.05v2.1h16.53q.795 0 1.38.75c.585.75.59 1.1.59 1.8s-.2 1.32-.59 1.85c-.39.54-.86.8-1.38.8h-20.09Zm39.11.33c-2.37 0-4.52-.41-6.43-1.22-1.92-.81-3.44-2.12-4.57-3.93s-1.69-4.21-1.69-7.2v-16.11c0-2.99.57-5.39 1.72-7.2s2.7-3.12 4.66-3.93 4.16-1.22 6.6-1.22c2.11 0 3.94.29 5.5.86s2.85 1.34 3.87 2.3 1.77 2.03 2.26 3.21.73 2.34.73 3.49c0 .96-.23 1.61-.68 1.96s-1.17.53-2.14.53c-.79 0-1.51-.16-2.14-.47q-.96-.465-.96-1.74c0-1.03-.3-1.91-.9-2.63s-1.4-1.28-2.4-1.69-2.1-.61-3.3-.61c-2.14 0-3.82.58-5.02 1.74s-1.81 2.96-1.81 5.4v6.98c.94-1.14 2.1-1.96 3.47-2.44s2.83-.72 4.37-.72c2.14 0 4.08.34 5.81 1.02s3.11 1.85 4.15 3.49c1.03 1.64 1.55 3.9 1.55 6.78v1c0 2.99-.56 5.39-1.66 7.2-1.11 1.81-2.62 3.12-4.54 3.93s-4.06 1.22-6.43 1.22Zm0-4.87c2.11 0 3.74-.57 4.91-1.72 1.17-1.14 1.75-2.95 1.75-5.43v-.94c0-2.55-.58-4.35-1.75-5.4s-2.82-1.58-4.97-1.58q-2.985 0-4.83 1.47-1.83 1.47-1.83 5.01v1.44c0 2.47.59 4.28 1.78 5.43 1.19 1.14 2.83 1.72 4.94 1.72" class="cls-6"/><path d="m317.9 143.89-52.66.19" style="stroke:#b3231e;stroke-linecap:round;stroke-miterlimit:10;stroke-width:1.77px;fill:none"/><path d="M115.94 145.89v8.4h-1.08v-8.4zm1.98 4c0-.62-.01-1.13-.05-1.63h.97l.06 1h.02c.3-.57 1-1.13 1.99-1.13.83 0 2.13.5 2.13 2.57v3.6h-1.1v-3.48c0-.97-.36-1.78-1.4-1.78-.72 0-1.28.51-1.47 1.12-.05.14-.07.32-.07.51v3.63h-1.1v-4.4Zm8.19-3.36v1.73h1.57v.83h-1.57v3.25c0 .75.21 1.17.82 1.17.29 0 .5-.04.64-.07l.05.82c-.21.09-.55.15-.97.15-.51 0-.92-.16-1.18-.46-.31-.32-.42-.86-.42-1.57v-3.29h-.93v-.83h.93v-1.45l1.07-.29Zm3.34 4.94c.03 1.48.97 2.09 2.07 2.09.79 0 1.26-.14 1.67-.31l.19.79c-.39.17-1.05.37-2.01.37-1.86 0-2.97-1.22-2.97-3.04s1.07-3.25 2.83-3.25c1.97 0 2.49 1.73 2.49 2.84 0 .22-.03.4-.04.51h-4.24Zm3.22-.78c.01-.7-.29-1.78-1.52-1.78-1.11 0-1.6 1.02-1.68 1.78zm2.42-.55c0-.71-.01-1.32-.05-1.88h.96l.04 1.18h.05c.27-.81.93-1.32 1.67-1.32.12 0 .21.01.31.04v1.04c-.11-.03-.22-.04-.37-.04-.77 0-1.32.59-1.47 1.41-.02.15-.05.32-.05.51v3.22h-1.08v-4.15Zm4.13-.25c0-.62-.01-1.13-.05-1.63h.97l.06 1h.02c.3-.57 1-1.13 1.99-1.13.84 0 2.13.5 2.13 2.57v3.6h-1.1v-3.48c0-.97-.36-1.78-1.4-1.78-.72 0-1.28.51-1.47 1.12-.05.14-.08.32-.08.51v3.63h-1.1v-4.4Zm10.26 4.4-.09-.76h-.04c-.34.47-.98.9-1.84.9-1.22 0-1.84-.86-1.84-1.73 0-1.46 1.3-2.26 3.63-2.24v-.12c0-.5-.14-1.4-1.37-1.4-.56 0-1.15.17-1.57.45l-.25-.72c.5-.32 1.22-.54 1.98-.54 1.84 0 2.29 1.26 2.29 2.47v2.26c0 .52.03 1.03.1 1.45h-1Zm-.16-3.08c-1.2-.02-2.55.19-2.55 1.36 0 .71.47 1.05 1.03 1.05.79 0 1.28-.5 1.46-1.01.04-.11.06-.24.06-.35zm4.1-4.68v1.73h1.57v.83h-1.57v3.25c0 .75.21 1.17.82 1.17.29 0 .5-.04.64-.07l.05.82c-.21.09-.55.15-.97.15-.51 0-.92-.16-1.18-.46-.31-.32-.42-.86-.42-1.57v-3.29h-.93v-.83h.93v-1.45l1.07-.29Zm4.03.03c.01.37-.26.67-.7.67-.39 0-.66-.3-.66-.67s.29-.69.69-.69.67.3.67.69m-1.22 7.73v-6.03h1.1v6.03zm8.37-3.06c0 2.23-1.55 3.2-3 3.2-1.63 0-2.89-1.2-2.89-3.1 0-2.02 1.32-3.2 2.99-3.2s2.9 1.26 2.9 3.1m-4.78.06c0 1.32.76 2.32 1.83 2.32s1.83-.98 1.83-2.34c0-1.02-.51-2.32-1.81-2.32s-1.86 1.2-1.86 2.34Zm6.17-1.4c0-.62-.01-1.13-.05-1.63h.97l.06 1h.02c.3-.57 1-1.13 1.99-1.13.84 0 2.13.5 2.13 2.57v3.6h-1.1v-3.48c0-.97-.36-1.78-1.4-1.78-.72 0-1.28.51-1.47 1.12-.05.14-.08.32-.08.51v3.63h-1.1v-4.4Zm10.26 4.4-.09-.76h-.04c-.34.47-.98.9-1.84.9-1.22 0-1.84-.86-1.84-1.73 0-1.46 1.3-2.26 3.63-2.24v-.12c0-.5-.14-1.4-1.37-1.4-.56 0-1.15.17-1.57.45l-.25-.72c.5-.32 1.22-.54 1.98-.54 1.84 0 2.29 1.26 2.29 2.47v2.26c0 .52.03 1.03.1 1.45h-1Zm-.16-3.08c-1.2-.02-2.55.19-2.55 1.36 0 .71.47 1.05 1.03 1.05.79 0 1.28-.5 1.46-1.01.04-.11.06-.24.06-.35zm2.83-5.77h1.1v8.85h-1.1zm11.5 8.58c-.4.2-1.2.4-2.22.4-2.37 0-4.15-1.5-4.15-4.25s1.78-4.41 4.39-4.41c1.05 0 1.71.22 1.99.37l-.26.88c-.41-.2-1-.35-1.69-.35-1.97 0-3.28 1.26-3.28 3.46 0 2.06 1.18 3.38 3.23 3.38.66 0 1.33-.14 1.77-.35l.22.86Zm6.65-2.79c0 2.23-1.55 3.2-3 3.2-1.63 0-2.89-1.2-2.89-3.1 0-2.02 1.32-3.2 2.99-3.2s2.9 1.26 2.9 3.1m-4.79.06c0 1.32.76 2.32 1.83 2.32s1.83-.98 1.83-2.34c0-1.02-.51-2.32-1.81-2.32s-1.86 1.2-1.86 2.34Zm6.17-1.4c0-.62-.01-1.13-.05-1.63h.97l.06 1h.02c.3-.57 1-1.13 1.99-1.13.84 0 2.13.5 2.13 2.57v3.6h-1.1v-3.48c0-.97-.36-1.78-1.4-1.78-.72 0-1.28.51-1.47 1.12-.05.14-.08.32-.08.51v3.63h-1.1v-4.4Zm7.04 4.4v-5.2h-.85v-.83h.85v-.29c0-.85.19-1.62.7-2.11.41-.4.96-.56 1.47-.56.39 0 .72.09.93.17l-.15.85c-.16-.08-.39-.14-.7-.14-.93 0-1.17.82-1.17 1.74v.32h1.46v.83h-1.46v5.2h-1.08Zm3.97-2.82c.03 1.48.97 2.09 2.07 2.09.79 0 1.26-.14 1.67-.31l.19.79c-.39.17-1.05.37-2.01.37-1.86 0-2.97-1.22-2.97-3.04s1.07-3.25 2.83-3.25c1.97 0 2.49 1.73 2.49 2.84 0 .22-.03.4-.04.51h-4.24Zm3.22-.78c.01-.7-.29-1.78-1.52-1.78-1.11 0-1.6 1.02-1.68 1.78zm2.42-.55c0-.71-.01-1.32-.05-1.88h.96l.04 1.18h.05c.27-.81.93-1.32 1.67-1.32.12 0 .21.01.31.04v1.04c-.11-.03-.22-.04-.37-.04-.77 0-1.32.59-1.47 1.41-.02.15-.05.32-.05.51v3.22h-1.08v-4.15Zm4.56 1.33c.03 1.48.97 2.09 2.07 2.09.79 0 1.26-.14 1.67-.31l.19.79c-.39.17-1.05.37-2.01.37-1.86 0-2.97-1.22-2.97-3.04s1.07-3.25 2.83-3.25c1.97 0 2.49 1.73 2.49 2.84 0 .22-.03.4-.04.51h-4.24Zm3.22-.78c.01-.7-.29-1.78-1.52-1.78-1.11 0-1.6 1.02-1.68 1.78zm2.42-.8c0-.62-.01-1.13-.05-1.63h.97l.06 1h.02c.3-.57 1-1.13 1.99-1.13.84 0 2.13.5 2.13 2.57v3.6h-1.1v-3.48c0-.97-.36-1.78-1.4-1.78-.72 0-1.28.51-1.47 1.12-.05.14-.08.32-.08.51v3.63h-1.1v-4.4Zm11.22 4.18c-.29.15-.92.35-1.73.35-1.82 0-3-1.23-3-3.08s1.27-3.2 3.24-3.2c.65 0 1.22.16 1.52.31l-.25.85c-.26-.15-.67-.29-1.27-.29-1.38 0-2.13 1.02-2.13 2.28 0 1.4.9 2.26 2.09 2.26.62 0 1.03-.16 1.35-.3l.19.82Zm1.83-2.6c.03 1.48.97 2.09 2.07 2.09.79 0 1.26-.14 1.67-.31l.19.79c-.39.17-1.05.37-2.01.37-1.86 0-2.97-1.22-2.97-3.04s1.07-3.25 2.83-3.25c1.97 0 2.49 1.73 2.49 2.84 0 .22-.03.4-.04.51h-4.24Zm3.21-.78c.01-.7-.29-1.78-1.52-1.78-1.11 0-1.6 1.02-1.68 1.78zm-83.8 6.73c.52-.09 1.21-.16 2.08-.16 1.07 0 1.86.25 2.36.7.46.4.74 1.01.74 1.76s-.22 1.36-.65 1.8c-.57.61-1.51.92-2.57.92-.32 0-.62-.01-.87-.08v3.37h-1.08v-8.3Zm1.09 4.05q.36.09.9.09c1.31 0 2.11-.64 2.11-1.8s-.79-1.65-1.98-1.65c-.47 0-.84.04-1.02.09v3.27Zm8.52 4.25-.09-.76h-.04c-.34.47-.98.9-1.84.9-1.22 0-1.84-.86-1.84-1.73 0-1.46 1.3-2.26 3.63-2.24v-.12c0-.5-.14-1.4-1.37-1.4-.56 0-1.15.17-1.57.45l-.25-.72c.5-.32 1.22-.54 1.98-.54 1.84 0 2.29 1.26 2.29 2.47v2.26c0 .52.03 1.03.1 1.45h-1Zm-.16-3.08c-1.2-.02-2.55.19-2.55 1.36 0 .71.47 1.05 1.03 1.05.79 0 1.28-.5 1.46-1.01.04-.11.06-.24.06-.35zm4.11-4.68v1.73h1.57v.83h-1.57v3.25c0 .75.21 1.17.82 1.17.29 0 .5-.04.64-.07l.05.82c-.21.09-.55.15-.97.15-.51 0-.92-.16-1.18-.46-.31-.32-.42-.86-.42-1.57v-3.29h-.93v-.83h.93v-1.45l1.07-.29Zm4.12 0v1.73h1.57v.83h-1.57v3.25c0 .75.21 1.17.82 1.17.29 0 .5-.04.64-.07l.05.82c-.21.09-.55.15-.97.15-.51 0-.92-.16-1.18-.46-.31-.32-.42-.86-.42-1.57v-3.29h-.93v-.83h.93v-1.45l1.07-.29Zm3.35 4.95c.03 1.48.97 2.09 2.07 2.09.79 0 1.26-.14 1.67-.31l.19.79c-.39.17-1.05.37-2.01.37-1.86 0-2.97-1.22-2.97-3.04s1.07-3.25 2.83-3.25c1.97 0 2.49 1.73 2.49 2.84 0 .22-.03.4-.04.51h-4.24Zm3.21-.79c.01-.7-.29-1.78-1.52-1.78-1.11 0-1.6 1.02-1.68 1.78zm2.42-.55c0-.71-.01-1.32-.05-1.88h.96l.04 1.18h.05c.27-.81.93-1.32 1.67-1.32.12 0 .21.01.31.04v1.04c-.11-.03-.22-.04-.37-.04-.77 0-1.32.59-1.47 1.41-.02.15-.05.32-.05.51v3.22h-1.08v-4.15Zm4.13-.25c0-.62-.01-1.13-.05-1.63h.97l.06 1h.02c.3-.57 1-1.13 1.99-1.13.84 0 2.13.5 2.13 2.57v3.6h-1.1v-3.48c0-.97-.36-1.78-1.4-1.78-.72 0-1.28.51-1.47 1.12-.05.14-.08.32-.08.51v3.63h-1.1v-4.4Zm9.6-3.89c.55-.11 1.33-.17 2.08-.17 1.16 0 1.91.21 2.43.69.42.37.66.95.66 1.6 0 1.11-.7 1.84-1.58 2.14v.04c.65.23 1.04.82 1.23 1.7.27 1.17.47 1.98.65 2.31h-1.12c-.14-.24-.32-.96-.56-2.01-.25-1.16-.7-1.6-1.68-1.63h-1.02v3.64h-1.08v-8.29Zm1.09 3.83h1.11c1.16 0 1.89-.64 1.89-1.6 0-1.08-.79-1.56-1.93-1.57-.52 0-.9.05-1.07.1zm6.24 1.65c.03 1.48.97 2.09 2.07 2.09.79 0 1.26-.14 1.67-.31l.19.79c-.39.17-1.05.37-2.01.37-1.86 0-2.97-1.22-2.97-3.04s1.07-3.25 2.83-3.25c1.97 0 2.49 1.73 2.49 2.84 0 .22-.03.4-.04.51h-4.24Zm3.22-.79c.01-.7-.29-1.78-1.52-1.78-1.11 0-1.6 1.02-1.68 1.78zm6.72 3.38c-.29.15-.92.35-1.73.35-1.82 0-3-1.23-3-3.08s1.27-3.2 3.24-3.2c.65 0 1.22.16 1.52.31l-.25.85c-.26-.15-.67-.29-1.27-.29-1.38 0-2.13 1.02-2.13 2.28 0 1.4.9 2.26 2.09 2.26.62 0 1.03-.16 1.35-.3l.19.82Zm6.67-2.84c0 2.23-1.55 3.2-3 3.2-1.63 0-2.89-1.2-2.89-3.1 0-2.02 1.32-3.2 2.99-3.2s2.9 1.26 2.9 3.1m-4.78.06c0 1.32.76 2.32 1.83 2.32s1.83-.98 1.83-2.34c0-1.02-.51-2.32-1.81-2.32s-1.86 1.2-1.86 2.34Zm11.37-3.03c-.03.44-.05.92-.05 1.66v3.5c0 1.38-.28 2.23-.86 2.75-.59.55-1.43.72-2.19.72s-1.52-.17-2.01-.5l.28-.84c.4.25 1.02.47 1.77.47 1.12 0 1.94-.59 1.94-2.11v-.67h-.02c-.34.56-.98 1.01-1.92 1.01-1.5 0-2.57-1.27-2.57-2.94 0-2.04 1.33-3.2 2.72-3.2 1.05 0 1.62.55 1.88 1.05h.03l.05-.91h.96Zm-1.14 2.38c0-.19-.01-.35-.06-.5-.2-.64-.74-1.16-1.53-1.16-1.05 0-1.79.88-1.79 2.28 0 1.18.6 2.17 1.78 2.17.67 0 1.28-.42 1.52-1.12.06-.19.09-.4.09-.59v-1.08Zm2.84-.75c0-.62-.01-1.13-.05-1.63h.97l.06 1h.02c.3-.57 1-1.13 1.99-1.13.84 0 2.13.5 2.13 2.57v3.6h-1.1v-3.48c0-.97-.36-1.78-1.4-1.78-.72 0-1.28.51-1.47 1.12-.05.14-.08.32-.08.51v3.63h-1.1v-4.4Zm8.14-3.33c.01.37-.26.67-.7.67-.39 0-.66-.3-.66-.67s.29-.69.69-.69.67.3.67.69m-1.22 7.73v-6.03h1.1v6.03zm4.24-7.76v1.73h1.57v.83h-1.57v3.25c0 .75.21 1.17.82 1.17.29 0 .5-.04.64-.07l.05.82c-.21.09-.55.15-.97.15-.51 0-.92-.16-1.18-.46-.31-.32-.42-.86-.42-1.57v-3.29h-.93v-.83h.93v-1.45l1.07-.29Zm4.02.03c.01.37-.26.67-.7.67-.39 0-.66-.3-.66-.67s.29-.69.69-.69.67.3.67.69m-1.22 7.73v-6.03h1.1v6.03zm8.38-3.06c0 2.23-1.55 3.2-3 3.2-1.63 0-2.89-1.2-2.89-3.1 0-2.02 1.32-3.2 2.99-3.2s2.9 1.26 2.9 3.1m-4.79.06c0 1.32.76 2.32 1.83 2.32s1.83-.98 1.83-2.34c0-1.02-.51-2.32-1.81-2.32s-1.86 1.2-1.86 2.34Zm6.18-1.4c0-.62-.01-1.13-.05-1.63h.97l.06 1h.02c.3-.57 1-1.13 1.99-1.13.84 0 2.13.5 2.13 2.57v3.6h-1.1v-3.48c0-.97-.36-1.78-1.4-1.78-.72 0-1.28.51-1.47 1.12-.05.14-.08.32-.08.51v3.63h-1.1v-4.4Zm-1.36-10.14c0 2.23-1.55 3.2-3 3.2-1.63 0-2.89-1.2-2.89-3.1 0-2.02 1.32-3.2 2.99-3.2s2.9 1.26 2.9 3.1m-4.78.06c0 1.32.76 2.32 1.83 2.32s1.83-.98 1.83-2.34c0-1.02-.51-2.32-1.81-2.32s-1.86 1.2-1.86 2.34Zm6.17-1.39c0-.62-.01-1.13-.05-1.63h.97l.06 1h.02c.3-.57 1-1.13 1.99-1.13.84 0 2.13.5 2.13 2.57v3.6h-1.1v-3.48c0-.97-.36-1.78-1.4-1.78-.72 0-1.28.51-1.47 1.12-.05.14-.08.32-.08.51v3.63h-1.1v-4.4Z" style="fill:#1d1d1b"/><path d="M0 0h329.03v206.26H0z" style="fill:none"/></svg>